<svg xmlns="http://www.w3.org/2000/svg" xmlns:xlink="http://www.w3.org/1999/xlink" xml:space="preserve" version="1.1"
  style="shape-rendering:geometricPrecision;text-rendering:geometricPrecision;image-rendering:optimizeQuality;"
  viewBox="0 0 846.66 1058.325" x="0px" y="0px" fill-rule="evenodd" clip-rule="evenodd">
  <defs>
    <style type="text/css">
      .fil0 {
        fill: black;
        fill-rule: nonzero
      }
    </style>
  </defs>
  <g>
    <path class="fil0"
      d="M74.05 210.47l106.55 142.03 17.56 -124.15 -124.11 -17.88zm488.02 124.75l-26.51 19.89c26.38,35.71 -6.16,60.06 -31.94,79.4 8.32,35.53 -14.04,51.58 -37.8,69.41 50.34,67.11 100.43,133.87 150.79,201 21.7,28.93 -82.44,85.59 -111.71,109.04 -9.22,7.87 -22.7,7.83 -30.39,-2.43l-150.8 -201c-34.69,26.02 -64.74,34.61 -95.17,-5.95l-33.1 24.83c23.49,31.32 -20.14,48.37 -49.68,70.53 -8.92,6.69 -21.57,4.88 -28.26,-4.04l-92.46 -123.25c-18.59,-24.78 63.2,-86.14 81.79,-61.35l3.85 5.13 33.1 -24.83c-30.42,-40.56 -13.78,-67.01 20.92,-93.04l-150.79 -201c-8.43,-11.23 -2.99,-28.77 10.45,-33.07 34.54,-17.83 108.12,-104.9 131.65,-73.53 50.27,67 100.53,134 150.8,201 24.2,-18.16 45.78,-34.63 77.18,-16.87 25.81,-19.36 57.8,-44.4 85.19,-8.46l26.5 -19.88c-43.8,-118.46 55.55,-253.69 86.89,-211.91l91.51 121.98 38.36 -28.78c-32.74,-98.04 138.52,-117.05 123.39,-11.08 -6.69,46.87 -61.01,69.8 -99.17,43.37l-38.36 28.78 90.58 120.73c35.24,43.49 -125.8,100.18 -226.81,25.38zm-124.97 -44.1c-8.9,-11.88 -45.78,50.15 -69.17,22.22 -4.84,-5.6 -13.68,-6.52 -19.59,-2.09 -57.87,43.42 -115.75,86.84 -173.62,130.26 -10.67,8 -4.64,17.89 1.35,25.87 78.74,-59.08 56.78,-51.55 133.72,51.02 17.69,23.58 -30.31,47.97 -48.96,61.96 5.58,7.45 13.3,16.21 23.52,9.17l174.57 -130.9c17.87,-13.4 -14.74,-30.61 8.51,-47.43 6.4,-4.63 40.14,-26.14 35.64,-32.14 -21.99,-29.32 -43.98,-58.63 -65.97,-87.94zm76.85 -7.62l-20.54 15.41 17.93 23.91 20.54 -15.41c-6.58,-7.5 -12.58,-15.49 -17.93,-23.91zm281.83 -172.24c4.32,-30.3 -41.6,-36.82 -45.91,-6.58 -4.33,30.29 41.6,36.82 45.91,6.58zm-640.89 531.37c-22.74,-30.32 -45.49,-60.64 -68.23,-90.97l-17.22 12.92 68.24 90.96 17.21 -12.91zm110.5 -116.15l-36.32 -48.41 -94.16 70.65 36.31 48.41 94.17 -70.65zm289.36 -254.9c43.92,58.55 123.5,77.67 189.12,45.54l-179.95 -239.87c-49.17,53.94 -53.05,135.85 -9.17,194.33zm-174.73 296.7l93.6 13.3 -40.09 -53.44 -53.51 40.14zm116.1 57.36l-123.8 -17.59 106.05 141.36 17.75 -123.77zm36 33.92l-13.42 93.58 53.51 -40.14 -40.09 -53.44zm-356.6 -475.34l-39.69 -52.9 -52.75 39.58 92.44 13.32zm45.37 172.19l53.63 -40.23 -40.35 -53.77 -13.28 94z" />
  </g>
</svg>